<svg xmlns="http://www.w3.org/2000/svg" width="1200" height="700" viewBox="0 0 1200 700" role="img" aria-labelledby="title desc">
  <title id="title">Bill Extraction AI</title>
  <desc id="desc">PDF Parsing • RAG • Validation</desc>
  <defs>
    <linearGradient id="bg" x1="0" y1="0" x2="1" y2="1">
      <stop offset="0%" stop-color="#091a1a"/>
      <stop offset="100%" stop-color="#0f2f2a"/>
    </linearGradient>
    <linearGradient id="glow" x1="0" y1="0" x2="1" y2="1">
      <stop offset="0%" stop-color="#44f0b3" stop-opacity="0.35"/>
      <stop offset="100%" stop-color="#ffffff" stop-opacity="0.08"/>
    </linearGradient>
    <filter id="shadow" x="-20%" y="-20%" width="140%" height="140%">
      <feDropShadow dx="0" dy="18" stdDeviation="24" flood-color="#000000" flood-opacity="0.28"/>
    </filter>
  </defs>
  <rect width="1200" height="700" rx="42" fill="url(#bg)"/>
  <circle cx="1025" cy="118" r="180" fill="#44f0b3" opacity="0.16"/>
  <circle cx="170" cy="575" r="145" fill="#ffffff" opacity="0.05"/>
  <rect x="56" y="56" width="1088" height="588" rx="34" fill="url(#glow)" opacity="0.88"/>
  <rect x="86" y="86" width="1028" height="528" rx="30" fill="#0b1020" fill-opacity="0.22" stroke="#ffffff" stroke-opacity="0.08"/>
  <g filter="url(#shadow)">
    <rect x="413" y="132" width="374" height="374" rx="54" fill="#ffffff" fill-opacity="0.08" stroke="#ffffff" stroke-opacity="0.14"/>
    <svg x="477" y="196" width="246" height="246" viewBox="0 0 24 24" style="color:#44f0b3; fill:#44f0b3;">
      <title>Qdrant</title><path d="m12 16.5 3.897-2.25v-4.5L12 7.5 8.103 9.75v4.5zM1.607 18 12 24l3.897-2.25v-4.5L12 19.5l-6.495-3.75v-7.5L12 4.5l6.495 3.75v15L22.393 21V6L12 0 1.607 6Z"/>
    </svg>
  </g>
  <text x="600" y="562" text-anchor="middle" fill="#f8fafc" font-size="54" font-weight="700" font-family="Inter,Segoe UI,Arial,sans-serif">Bill Extraction AI</text>
  <text x="600" y="612" text-anchor="middle" fill="#dbe4f0" font-size="26" font-weight="500" font-family="Inter,Segoe UI,Arial,sans-serif" letter-spacing="1.2">PDF Parsing • RAG • Validation</text>
</svg>
