<svg xmlns="http://www.w3.org/2000/svg" width="1200" height="700" viewBox="0 0 1200 700" role="img" aria-labelledby="title desc">
  <title id="title">Observability</title>
  <desc id="desc">OpenTelemetry • SigNoz</desc>
  <defs>
    <linearGradient id="bg" x1="0" y1="0" x2="1" y2="1">
      <stop offset="0%" stop-color="#1b0c14"/>
      <stop offset="100%" stop-color="#341325"/>
    </linearGradient>
    <linearGradient id="glow" x1="0" y1="0" x2="1" y2="1">
      <stop offset="0%" stop-color="#c62f68" stop-opacity="0.35"/>
      <stop offset="100%" stop-color="#ffffff" stop-opacity="0.08"/>
    </linearGradient>
    <filter id="shadow" x="-20%" y="-20%" width="140%" height="140%">
      <feDropShadow dx="0" dy="18" stdDeviation="24" flood-color="#000000" flood-opacity="0.28"/>
    </filter>
  </defs>
  <rect width="1200" height="700" rx="42" fill="url(#bg)"/>
  <circle cx="1025" cy="118" r="180" fill="#c62f68" opacity="0.16"/>
  <circle cx="170" cy="575" r="145" fill="#ffffff" opacity="0.05"/>
  <rect x="56" y="56" width="1088" height="588" rx="34" fill="url(#glow)" opacity="0.88"/>
  <rect x="86" y="86" width="1028" height="528" rx="30" fill="#0b1020" fill-opacity="0.22" stroke="#ffffff" stroke-opacity="0.08"/>
  <g filter="url(#shadow)">
    <rect x="413" y="132" width="374" height="374" rx="54" fill="#ffffff" fill-opacity="0.08" stroke="#ffffff" stroke-opacity="0.14"/>
    <svg x="477" y="196" width="246" height="246" viewBox="0 0 24 24" style="color:#ff6b9a; fill:#ff6b9a;">
      <title>OpenTelemetry</title><path d="M12.6974 13.1173c-1.0224 1.0224-1.0224 2.68 0 3.7024 1.0224 1.0224 2.68 1.0224 3.7024 0 1.0224-1.0223 1.0224-2.68 0-3.7024-1.0223-1.0223-2.68-1.0223-3.7024 0zm2.7677 2.7701c-.5063.5063-1.3267.5063-1.833 0s-.5063-1.3266 0-1.833c.5063-.5062 1.3267-.5062 1.833 0 .5063.504.5063 1.3267 0 1.833zM16.356.2355l-1.6041 1.6042c-.314.314-.314.83 0 1.144L21.015 9.247c.314.314.83.314 1.144 0l1.6042-1.6041c.314-.314.314-.83 0-1.144L17.4976.2354c-.314-.314-.8276-.314-1.1416 0zM5.1173 20.734c.2848-.2848.2848-.7497 0-1.0345l-.8155-.8155c-.2848-.2848-.7497-.2848-1.0345 0l-1.6845 1.6845-.0024.0024-.4625-.4625c-.2556-.2556-.6718-.2556-.925 0-.2556.2556-.2556.6718 0 .925l2.775 2.775c.2556.2556.6718.2556.925 0 .2532-.2556.2556-.6718 0-.925l-.4625-.4625.0024-.0024zm8.4856-15.893-3.5637 3.5637c-.3164.3164-.3164.8374 0 1.1538l2.2006 2.2005c1.5554-1.1197 3.7365-.981 5.1361.4187l1.7819-1.7818c.3164-.3165.3164-.8374 0-1.1538l-4.401-4.401c-.3165-.319-.8374-.319-1.1539 0zm-2.2881 7.8455-1.2999-1.2999c-.3043-.3043-.8033-.3043-1.1076 0l-4.5836 4.586c-.3042.3043-.3042.8033 0 1.1076l2.5973 2.5973c.3043.3043.8033.3043 1.1076 0l2.9478-2.9527c-.6231-1.2877-.5112-2.8431.3384-4.0383z"/>
    </svg>
  </g>
  <text x="600" y="562" text-anchor="middle" fill="#f8fafc" font-size="54" font-weight="700" font-family="Inter,Segoe UI,Arial,sans-serif">Observability</text>
  <text x="600" y="612" text-anchor="middle" fill="#dbe4f0" font-size="26" font-weight="500" font-family="Inter,Segoe UI,Arial,sans-serif" letter-spacing="1.2">OpenTelemetry • SigNoz</text>
</svg>
